<svg width="225" height="138" viewBox="0 0 225 138" fill="none" xmlns="http://www.w3.org/2000/svg">
<path d="M33.5 1.9V37H24.95V22.55H11.65V37H3.1V1.9H11.65V15.65H24.95V1.9H33.5ZM65.9723 22.6C65.9723 23.4 65.9223 24.2333 65.8223 25.1H46.4723C46.6056 26.8333 47.1556 28.1667 48.1223 29.1C49.1223 30 50.3389 30.45 51.7723 30.45C53.9056 30.45 55.3889 29.55 56.2223 27.75H65.3223C64.8556 29.5833 64.0056 31.2333 62.7723 32.7C61.5723 34.1667 60.0556 35.3167 58.2223 36.15C56.3889 36.9833 54.3389 37.4 52.0723 37.4C49.3389 37.4 46.9056 36.8167 44.7723 35.65C42.6389 34.4833 40.9723 32.8167 39.7723 30.65C38.5723 28.4833 37.9723 25.95 37.9723 23.05C37.9723 20.15 38.5556 17.6167 39.7223 15.45C40.9223 13.2833 42.5889 11.6167 44.7223 10.45C46.8556 9.28333 49.3056 8.7 52.0723 8.7C54.7723 8.7 57.1723 9.26667 59.2723 10.4C61.3723 11.5333 63.0056 13.15 64.1723 15.25C65.3723 17.35 65.9723 19.8 65.9723 22.6ZM57.2223 20.35C57.2223 18.8833 56.7223 17.7167 55.7223 16.85C54.7223 15.9833 53.4723 15.55 51.9723 15.55C50.5389 15.55 49.3223 15.9667 48.3223 16.8C47.3556 17.6333 46.7556 18.8167 46.5223 20.35H57.2223ZM87.4828 8.8C90.7495 8.8 93.3495 9.86667 95.2828 12C97.2495 14.1 98.2328 17 98.2328 20.7V37H89.7328V21.85C89.7328 19.9833 89.2495 18.5333 88.2828 17.5C87.3161 16.4667 86.0161 15.95 84.3828 15.95C82.7495 15.95 81.4495 16.4667 80.4828 17.5C79.5161 18.5333 79.0328 19.9833 79.0328 21.85V37H70.4828V9.1H79.0328V12.8C79.8995 11.5667 81.0661 10.6 82.5328 9.9C83.9995 9.16667 85.6495 8.8 87.4828 8.8ZM102.474 23C102.474 20.1333 103.008 17.6167 104.074 15.45C105.174 13.2833 106.658 11.6167 108.524 10.45C110.391 9.28333 112.474 8.7 114.774 8.7C116.608 8.7 118.274 9.08333 119.774 9.85C121.308 10.6167 122.508 11.65 123.374 12.95V-4.76837e-07H131.924V37H123.374V33C122.574 34.3333 121.424 35.4 119.924 36.2C118.458 37 116.741 37.4 114.774 37.4C112.474 37.4 110.391 36.8167 108.524 35.65C106.658 34.45 105.174 32.7667 104.074 30.6C103.008 28.4 102.474 25.8667 102.474 23ZM123.374 23.05C123.374 20.9167 122.774 19.2333 121.574 18C120.408 16.7667 118.974 16.15 117.274 16.15C115.574 16.15 114.124 16.7667 112.924 18C111.758 19.2 111.174 20.8667 111.174 23C111.174 25.1333 111.758 26.8333 112.924 28.1C114.124 29.3333 115.574 29.95 117.274 29.95C118.974 29.95 120.408 29.3333 121.574 28.1C122.774 26.8667 123.374 25.1833 123.374 23.05ZM146.66 13.75C147.66 12.2167 148.91 11.0167 150.41 10.15C151.91 9.25 153.576 8.8 155.41 8.8V17.85H153.06C150.926 17.85 149.326 18.3167 148.26 19.25C147.193 20.15 146.66 21.75 146.66 24.05V37H138.11V9.1H146.66V13.75ZM157.796 23C157.796 20.1333 158.33 17.6167 159.396 15.45C160.496 13.2833 161.98 11.6167 163.846 10.45C165.713 9.28333 167.796 8.7 170.096 8.7C172.063 8.7 173.78 9.1 175.246 9.9C176.746 10.7 177.896 11.75 178.696 13.05V9.1H187.246V37H178.696V33.05C177.863 34.35 176.696 35.4 175.196 36.2C173.73 37 172.013 37.4 170.046 37.4C167.78 37.4 165.713 36.8167 163.846 35.65C161.98 34.45 160.496 32.7667 159.396 30.6C158.33 28.4 157.796 25.8667 157.796 23ZM178.696 23.05C178.696 20.9167 178.096 19.2333 176.896 18C175.73 16.7667 174.296 16.15 172.596 16.15C170.896 16.15 169.446 16.7667 168.246 18C167.08 19.2 166.496 20.8667 166.496 23C166.496 25.1333 167.08 26.8333 168.246 28.1C169.446 29.3333 170.896 29.95 172.596 29.95C174.296 29.95 175.73 29.3333 176.896 28.1C178.096 26.8667 178.696 25.1833 178.696 23.05Z" fill="#10B981"/>
<path d="M24.95 80.8H11.85L9.75 87H0.8L13.5 51.9H23.4L36.1 87H27.05L24.95 80.8ZM22.75 74.2L18.4 61.35L14.1 74.2H22.75ZM38.2652 73C38.2652 70.1333 38.7986 67.6167 39.8652 65.45C40.9652 63.2833 42.4486 61.6167 44.3152 60.45C46.1819 59.2833 48.2652 58.7 50.5652 58.7C52.3986 58.7 54.0652 59.0833 55.5652 59.85C57.0986 60.6167 58.2986 61.65 59.1652 62.95V50H67.7152V87H59.1652V83C58.3652 84.3333 57.2152 85.4 55.7152 86.2C54.2486 87 52.5319 87.4 50.5652 87.4C48.2652 87.4 46.1819 86.8167 44.3152 85.65C42.4486 84.45 40.9652 82.7667 39.8652 80.6C38.7986 78.4 38.2652 75.8667 38.2652 73ZM59.1652 73.05C59.1652 70.9167 58.5652 69.2333 57.3652 68C56.1986 66.7667 54.7652 66.15 53.0652 66.15C51.3652 66.15 49.9152 66.7667 48.7152 68C47.5486 69.2 46.9652 70.8667 46.9652 73C46.9652 75.1333 47.5486 76.8333 48.7152 78.1C49.9152 79.3333 51.3652 79.95 53.0652 79.95C54.7652 79.95 56.1986 79.3333 57.3652 78.1C58.5652 76.8667 59.1652 75.1833 59.1652 73.05ZM78.2008 56.2C76.7008 56.2 75.4674 55.7667 74.5008 54.9C73.5674 54 73.1008 52.9 73.1008 51.6C73.1008 50.2667 73.5674 49.1667 74.5008 48.3C75.4674 47.4 76.7008 46.95 78.2008 46.95C79.6674 46.95 80.8674 47.4 81.8008 48.3C82.7674 49.1667 83.2508 50.2667 83.2508 51.6C83.2508 52.9 82.7674 54 81.8008 54.9C80.8674 55.7667 79.6674 56.2 78.2008 56.2ZM82.4508 59.1V87H73.9008V59.1H82.4508ZM104.197 79.75V87H99.8469C96.7469 87 94.3302 86.25 92.5969 84.75C90.8635 83.2167 89.9969 80.7333 89.9969 77.3V66.2H86.5969V59.1H89.9969V52.3H98.5469V59.1H104.147V66.2H98.5469V77.4C98.5469 78.2333 98.7469 78.8333 99.1469 79.2C99.5469 79.5667 100.214 79.75 101.147 79.75H104.197ZM137.459 59.1L119.959 100.25H110.759L117.159 86.05L105.809 59.1H115.359L121.809 76.55L128.209 59.1H137.459ZM138.851 73C138.851 70.1333 139.385 67.6167 140.451 65.45C141.551 63.2833 143.035 61.6167 144.901 60.45C146.768 59.2833 148.851 58.7 151.151 58.7C153.118 58.7 154.835 59.1 156.301 59.9C157.801 60.7 158.951 61.75 159.751 63.05V59.1H168.301V87H159.751V83.05C158.918 84.35 157.751 85.4 156.251 86.2C154.785 87 153.068 87.4 151.101 87.4C148.835 87.4 146.768 86.8167 144.901 85.65C143.035 84.45 141.551 82.7667 140.451 80.6C139.385 78.4 138.851 75.8667 138.851 73ZM159.751 73.05C159.751 70.9167 159.151 69.2333 157.951 68C156.785 66.7667 155.351 66.15 153.651 66.15C151.951 66.15 150.501 66.7667 149.301 68C148.135 69.2 147.551 70.8667 147.551 73C147.551 75.1333 148.135 76.8333 149.301 78.1C150.501 79.3333 151.951 79.95 153.651 79.95C155.351 79.95 156.785 79.3333 157.951 78.1C159.151 76.8667 159.751 75.1833 159.751 73.05ZM29.85 113.2C29.85 115.233 29.3833 117.1 28.45 118.8C27.5167 120.467 26.0833 121.817 24.15 122.85C22.2167 123.883 19.8167 124.4 16.95 124.4H11.65V137H3.1V101.9H16.95C19.75 101.9 22.1167 102.383 24.05 103.35C25.9833 104.317 27.4333 105.65 28.4 107.35C29.3667 109.05 29.85 111 29.85 113.2ZM16.3 117.6C17.9333 117.6 19.15 117.217 19.95 116.45C20.75 115.683 21.15 114.6 21.15 113.2C21.15 111.8 20.75 110.717 19.95 109.95C19.15 109.183 17.9333 108.8 16.3 108.8H11.65V117.6H16.3ZM42.8512 113.75C43.8512 112.217 45.1012 111.017 46.6012 110.15C48.1012 109.25 49.7678 108.8 51.6012 108.8V117.85H49.2512C47.1178 117.85 45.5178 118.317 44.4512 119.25C43.3845 120.15 42.8512 121.75 42.8512 124.05V137H34.3012V109.1H42.8512V113.75ZM53.9879 123C53.9879 120.133 54.5212 117.617 55.5879 115.45C56.6879 113.283 58.1712 111.617 60.0379 110.45C61.9046 109.283 63.9879 108.7 66.2879 108.7C68.2546 108.7 69.9712 109.1 71.4379 109.9C72.9379 110.7 74.0879 111.75 74.8879 113.05V109.1H83.4379V137H74.8879V133.05C74.0546 134.35 72.8879 135.4 71.3879 136.2C69.9212 137 68.2046 137.4 66.2379 137.4C63.9712 137.4 61.9046 136.817 60.0379 135.65C58.1712 134.45 56.6879 132.767 55.5879 130.6C54.5212 128.4 53.9879 125.867 53.9879 123ZM74.8879 123.05C74.8879 120.917 74.2879 119.233 73.0879 118C71.9212 116.767 70.4879 116.15 68.7879 116.15C67.0879 116.15 65.6379 116.767 64.4379 118C63.2712 119.2 62.6879 120.867 62.6879 123C62.6879 125.133 63.2712 126.833 64.4379 128.1C65.6379 129.333 67.0879 129.95 68.7879 129.95C70.4879 129.95 71.9212 129.333 73.0879 128.1C74.2879 126.867 74.8879 125.183 74.8879 123.05ZM105.173 129.75V137H100.823C97.7234 137 95.3068 136.25 93.5734 134.75C91.8401 133.217 90.9734 130.733 90.9734 127.3V116.2H87.5734V109.1H90.9734V102.3H99.5234V109.1H105.123V116.2H99.5234V127.4C99.5234 128.233 99.7234 128.833 100.123 129.2C100.523 129.567 101.19 129.75 102.123 129.75H105.173ZM108.236 123C108.236 120.133 108.769 117.617 109.836 115.45C110.936 113.283 112.419 111.617 114.286 110.45C116.153 109.283 118.236 108.7 120.536 108.7C122.503 108.7 124.219 109.1 125.686 109.9C127.186 110.7 128.336 111.75 129.136 113.05V109.1H137.686V137H129.136V133.05C128.303 134.35 127.136 135.4 125.636 136.2C124.169 137 122.453 137.4 120.486 137.4C118.219 137.4 116.153 136.817 114.286 135.65C112.419 134.45 110.936 132.767 109.836 130.6C108.769 128.4 108.236 125.867 108.236 123ZM129.136 123.05C129.136 120.917 128.536 119.233 127.336 118C126.169 116.767 124.736 116.15 123.036 116.15C121.336 116.15 119.886 116.767 118.686 118C117.519 119.2 116.936 120.867 116.936 123C116.936 125.133 117.519 126.833 118.686 128.1C119.886 129.333 121.336 129.95 123.036 129.95C124.736 129.95 126.169 129.333 127.336 128.1C128.536 126.867 129.136 125.183 129.136 123.05ZM179.471 108.8C182.938 108.8 185.688 109.85 187.721 111.95C189.788 114.05 190.821 116.967 190.821 120.7V137H182.321V121.85C182.321 120.05 181.838 118.667 180.871 117.7C179.938 116.7 178.638 116.2 176.971 116.2C175.305 116.2 173.988 116.7 173.021 117.7C172.088 118.667 171.621 120.05 171.621 121.85V137H163.121V121.85C163.121 120.05 162.638 118.667 161.671 117.7C160.738 116.7 159.438 116.2 157.771 116.2C156.105 116.2 154.788 116.7 153.821 117.7C152.888 118.667 152.421 120.05 152.421 121.85V137H143.871V109.1H152.421V112.6C153.288 111.433 154.421 110.517 155.821 109.85C157.221 109.15 158.805 108.8 160.571 108.8C162.671 108.8 164.538 109.25 166.171 110.15C167.838 111.05 169.138 112.333 170.071 114C171.038 112.467 172.355 111.217 174.021 110.25C175.688 109.283 177.505 108.8 179.471 108.8ZM195.101 123C195.101 120.133 195.635 117.617 196.701 115.45C197.801 113.283 199.285 111.617 201.151 110.45C203.018 109.283 205.101 108.7 207.401 108.7C209.368 108.7 211.085 109.1 212.551 109.9C214.051 110.7 215.201 111.75 216.001 113.05V109.1H224.551V137H216.001V133.05C215.168 134.35 214.001 135.4 212.501 136.2C211.035 137 209.318 137.4 207.351 137.4C205.085 137.4 203.018 136.817 201.151 135.65C199.285 134.45 197.801 132.767 196.701 130.6C195.635 128.4 195.101 125.867 195.101 123ZM216.001 123.05C216.001 120.917 215.401 119.233 214.201 118C213.035 116.767 211.601 116.15 209.901 116.15C208.201 116.15 206.751 116.767 205.551 118C204.385 119.2 203.801 120.867 203.801 123C203.801 125.133 204.385 126.833 205.551 128.1C206.751 129.333 208.201 129.95 209.901 129.95C211.601 129.95 213.035 129.333 214.201 128.1C215.401 126.867 216.001 125.183 216.001 123.05Z" fill="white"/>
</svg>
