<svg width="367" height="97" viewBox="0 0 367 97" fill="none" xmlns="http://www.w3.org/2000/svg">
<path d="M30.5 5.9V41H21.95V26.55H8.65V41H0.1V5.9H8.65V19.65H21.95V5.9H30.5ZM62.9723 26.6C62.9723 27.4 62.9223 28.2333 62.8223 29.1H43.4723C43.6056 30.8333 44.1556 32.1667 45.1223 33.1C46.1223 34 47.3389 34.45 48.7723 34.45C50.9056 34.45 52.3889 33.55 53.2223 31.75H62.3223C61.8556 33.5833 61.0056 35.2333 59.7723 36.7C58.5723 38.1667 57.0556 39.3167 55.2223 40.15C53.3889 40.9833 51.3389 41.4 49.0723 41.4C46.3389 41.4 43.9056 40.8167 41.7723 39.65C39.6389 38.4833 37.9723 36.8167 36.7723 34.65C35.5723 32.4833 34.9723 29.95 34.9723 27.05C34.9723 24.15 35.5556 21.6167 36.7223 19.45C37.9223 17.2833 39.5889 15.6167 41.7223 14.45C43.8556 13.2833 46.3056 12.7 49.0723 12.7C51.7723 12.7 54.1723 13.2667 56.2723 14.4C58.3723 15.5333 60.0056 17.15 61.1723 19.25C62.3723 21.35 62.9723 23.8 62.9723 26.6ZM54.2223 24.35C54.2223 22.8833 53.7223 21.7167 52.7223 20.85C51.7223 19.9833 50.4723 19.55 48.9723 19.55C47.5389 19.55 46.3223 19.9667 45.3223 20.8C44.3556 21.6333 43.7556 22.8167 43.5223 24.35H54.2223ZM84.4828 12.8C87.7495 12.8 90.3495 13.8667 92.2828 16C94.2495 18.1 95.2328 21 95.2328 24.7V41H86.7328V25.85C86.7328 23.9833 86.2495 22.5333 85.2828 21.5C84.3161 20.4667 83.0161 19.95 81.3828 19.95C79.7495 19.95 78.4495 20.4667 77.4828 21.5C76.5161 22.5333 76.0328 23.9833 76.0328 25.85V41H67.4828V13.1H76.0328V16.8C76.8995 15.5667 78.0661 14.6 79.5328 13.9C80.9995 13.1667 82.6495 12.8 84.4828 12.8ZM99.4742 27C99.4742 24.1333 100.008 21.6167 101.074 19.45C102.174 17.2833 103.658 15.6167 105.524 14.45C107.391 13.2833 109.474 12.7 111.774 12.7C113.608 12.7 115.274 13.0833 116.774 13.85C118.308 14.6167 119.508 15.65 120.374 16.95V4H128.924V41H120.374V37C119.574 38.3333 118.424 39.4 116.924 40.2C115.458 41 113.741 41.4 111.774 41.4C109.474 41.4 107.391 40.8167 105.524 39.65C103.658 38.45 102.174 36.7667 101.074 34.6C100.008 32.4 99.4742 29.8667 99.4742 27ZM120.374 27.05C120.374 24.9167 119.774 23.2333 118.574 22C117.408 20.7667 115.974 20.15 114.274 20.15C112.574 20.15 111.124 20.7667 109.924 22C108.758 23.2 108.174 24.8667 108.174 27C108.174 29.1333 108.758 30.8333 109.924 32.1C111.124 33.3333 112.574 33.95 114.274 33.95C115.974 33.95 117.408 33.3333 118.574 32.1C119.774 30.8667 120.374 29.1833 120.374 27.05ZM143.66 17.75C144.66 16.2167 145.91 15.0167 147.41 14.15C148.91 13.25 150.576 12.8 152.41 12.8V21.85H150.06C147.926 21.85 146.326 22.3167 145.26 23.25C144.193 24.15 143.66 25.75 143.66 28.05V41H135.11V13.1H143.66V17.75ZM154.796 27C154.796 24.1333 155.33 21.6167 156.396 19.45C157.496 17.2833 158.98 15.6167 160.846 14.45C162.713 13.2833 164.796 12.7 167.096 12.7C169.063 12.7 170.78 13.1 172.246 13.9C173.746 14.7 174.896 15.75 175.696 17.05V13.1H184.246V41H175.696V37.05C174.863 38.35 173.696 39.4 172.196 40.2C170.73 41 169.013 41.4 167.046 41.4C164.78 41.4 162.713 40.8167 160.846 39.65C158.98 38.45 157.496 36.7667 156.396 34.6C155.33 32.4 154.796 29.8667 154.796 27ZM175.696 27.05C175.696 24.9167 175.096 23.2333 173.896 22C172.73 20.7667 171.296 20.15 169.596 20.15C167.896 20.15 166.446 20.7667 165.246 22C164.08 23.2 163.496 24.8667 163.496 27C163.496 29.1333 164.08 30.8333 165.246 32.1C166.446 33.3333 167.896 33.95 169.596 33.95C171.296 33.95 172.73 33.3333 173.896 32.1C175.096 30.8667 175.696 29.1833 175.696 27.05Z" fill="#10B981"/>
<path d="M222.878 34.8H209.778L207.678 41H198.728L211.428 5.9H221.328L234.028 41H224.978L222.878 34.8ZM220.678 28.2L216.328 15.35L212.028 28.2H220.678ZM236.193 27C236.193 24.1333 236.726 21.6167 237.793 19.45C238.893 17.2833 240.376 15.6167 242.243 14.45C244.11 13.2833 246.193 12.7 248.493 12.7C250.326 12.7 251.993 13.0833 253.493 13.85C255.026 14.6167 256.226 15.65 257.093 16.95V4H265.643V41H257.093V37C256.293 38.3333 255.143 39.4 253.643 40.2C252.176 41 250.46 41.4 248.493 41.4C246.193 41.4 244.11 40.8167 242.243 39.65C240.376 38.45 238.893 36.7667 237.793 34.6C236.726 32.4 236.193 29.8667 236.193 27ZM257.093 27.05C257.093 24.9167 256.493 23.2333 255.293 22C254.126 20.7667 252.693 20.15 250.993 20.15C249.293 20.15 247.843 20.7667 246.643 22C245.476 23.2 244.893 24.8667 244.893 27C244.893 29.1333 245.476 30.8333 246.643 32.1C247.843 33.3333 249.293 33.95 250.993 33.95C252.693 33.95 254.126 33.3333 255.293 32.1C256.493 30.8667 257.093 29.1833 257.093 27.05ZM276.129 10.2C274.629 10.2 273.395 9.76666 272.429 8.9C271.495 8 271.029 6.9 271.029 5.6C271.029 4.26667 271.495 3.16666 272.429 2.3C273.395 1.4 274.629 0.949997 276.129 0.949997C277.595 0.949997 278.795 1.4 279.729 2.3C280.695 3.16666 281.179 4.26667 281.179 5.6C281.179 6.9 280.695 8 279.729 8.9C278.795 9.76666 277.595 10.2 276.129 10.2ZM280.379 13.1V41H271.829V13.1H280.379ZM302.125 33.75V41H297.775C294.675 41 292.258 40.25 290.525 38.75C288.791 37.2167 287.925 34.7333 287.925 31.3V20.2H284.525V13.1H287.925V6.3H296.475V13.1H302.075V20.2H296.475V31.4C296.475 32.2333 296.675 32.8333 297.075 33.2C297.475 33.5667 298.141 33.75 299.075 33.75H302.125ZM335.387 13.1L317.887 54.25H308.687L315.087 40.05L303.737 13.1H313.287L319.737 30.55L326.137 13.1H335.387ZM336.779 27C336.779 24.1333 337.312 21.6167 338.379 19.45C339.479 17.2833 340.962 15.6167 342.829 14.45C344.696 13.2833 346.779 12.7 349.079 12.7C351.046 12.7 352.762 13.1 354.229 13.9C355.729 14.7 356.879 15.75 357.679 17.05V13.1H366.229V41H357.679V37.05C356.846 38.35 355.679 39.4 354.179 40.2C352.712 41 350.996 41.4 349.029 41.4C346.762 41.4 344.696 40.8167 342.829 39.65C340.962 38.45 339.479 36.7667 338.379 34.6C337.312 32.4 336.779 29.8667 336.779 27ZM357.679 27.05C357.679 24.9167 357.079 23.2333 355.879 22C354.712 20.7667 353.279 20.15 351.579 20.15C349.879 20.15 348.429 20.7667 347.229 22C346.062 23.2 345.479 24.8667 345.479 27C345.479 29.1333 346.062 30.8333 347.229 32.1C348.429 33.3333 349.879 33.95 351.579 33.95C353.279 33.95 354.712 33.3333 355.879 32.1C357.079 30.8667 357.679 29.1833 357.679 27.05ZM26.85 72.2C26.85 74.2333 26.3833 76.1 25.45 77.8C24.5167 79.4667 23.0833 80.8167 21.15 81.85C19.2167 82.8833 16.8167 83.4 13.95 83.4H8.65V96H0.1V60.9H13.95C16.75 60.9 19.1167 61.3833 21.05 62.35C22.9833 63.3167 24.4333 64.65 25.4 66.35C26.3667 68.05 26.85 70 26.85 72.2ZM13.3 76.6C14.9333 76.6 16.15 76.2167 16.95 75.45C17.75 74.6833 18.15 73.6 18.15 72.2C18.15 70.8 17.75 69.7167 16.95 68.95C16.15 68.1833 14.9333 67.8 13.3 67.8H8.65V76.6H13.3ZM39.8512 72.75C40.8512 71.2167 42.1012 70.0167 43.6012 69.15C45.1012 68.25 46.7678 67.8 48.6012 67.8V76.85H46.2512C44.1178 76.85 42.5178 77.3167 41.4512 78.25C40.3845 79.15 39.8512 80.75 39.8512 83.05V96H31.3012V68.1H39.8512V72.75ZM50.9879 82C50.9879 79.1333 51.5212 76.6167 52.5879 74.45C53.6879 72.2833 55.1712 70.6167 57.0379 69.45C58.9046 68.2833 60.9879 67.7 63.2879 67.7C65.2546 67.7 66.9712 68.1 68.4379 68.9C69.9379 69.7 71.0879 70.75 71.8879 72.05V68.1H80.4379V96H71.8879V92.05C71.0546 93.35 69.8879 94.4 68.3879 95.2C66.9212 96 65.2046 96.4 63.2379 96.4C60.9712 96.4 58.9046 95.8167 57.0379 94.65C55.1712 93.45 53.6879 91.7667 52.5879 89.6C51.5212 87.4 50.9879 84.8667 50.9879 82ZM71.8879 82.05C71.8879 79.9167 71.2879 78.2333 70.0879 77C68.9212 75.7667 67.4879 75.15 65.7879 75.15C64.0879 75.15 62.6379 75.7667 61.4379 77C60.2712 78.2 59.6879 79.8667 59.6879 82C59.6879 84.1333 60.2712 85.8333 61.4379 87.1C62.6379 88.3333 64.0879 88.95 65.7879 88.95C67.4879 88.95 68.9212 88.3333 70.0879 87.1C71.2879 85.8667 71.8879 84.1833 71.8879 82.05ZM102.173 88.75V96H97.8234C94.7234 96 92.3068 95.25 90.5734 93.75C88.8401 92.2167 87.9734 89.7333 87.9734 86.3V75.2H84.5734V68.1H87.9734V61.3H96.5234V68.1H102.123V75.2H96.5234V86.4C96.5234 87.2333 96.7234 87.8333 97.1234 88.2C97.5234 88.5667 98.1901 88.75 99.1234 88.75H102.173ZM105.236 82C105.236 79.1333 105.769 76.6167 106.836 74.45C107.936 72.2833 109.419 70.6167 111.286 69.45C113.153 68.2833 115.236 67.7 117.536 67.7C119.503 67.7 121.219 68.1 122.686 68.9C124.186 69.7 125.336 70.75 126.136 72.05V68.1H134.686V96H126.136V92.05C125.303 93.35 124.136 94.4 122.636 95.2C121.169 96 119.453 96.4 117.486 96.4C115.219 96.4 113.153 95.8167 111.286 94.65C109.419 93.45 107.936 91.7667 106.836 89.6C105.769 87.4 105.236 84.8667 105.236 82ZM126.136 82.05C126.136 79.9167 125.536 78.2333 124.336 77C123.169 75.7667 121.736 75.15 120.036 75.15C118.336 75.15 116.886 75.7667 115.686 77C114.519 78.2 113.936 79.8667 113.936 82C113.936 84.1333 114.519 85.8333 115.686 87.1C116.886 88.3333 118.336 88.95 120.036 88.95C121.736 88.95 123.169 88.3333 124.336 87.1C125.536 85.8667 126.136 84.1833 126.136 82.05ZM176.471 67.8C179.938 67.8 182.688 68.85 184.721 70.95C186.788 73.05 187.821 75.9667 187.821 79.7V96H179.321V80.85C179.321 79.05 178.838 77.6667 177.871 76.7C176.938 75.7 175.638 75.2 173.971 75.2C172.305 75.2 170.988 75.7 170.021 76.7C169.088 77.6667 168.621 79.05 168.621 80.85V96H160.121V80.85C160.121 79.05 159.638 77.6667 158.671 76.7C157.738 75.7 156.438 75.2 154.771 75.2C153.105 75.2 151.788 75.7 150.821 76.7C149.888 77.6667 149.421 79.05 149.421 80.85V96H140.871V68.1H149.421V71.6C150.288 70.4333 151.421 69.5167 152.821 68.85C154.221 68.15 155.805 67.8 157.571 67.8C159.671 67.8 161.538 68.25 163.171 69.15C164.838 70.05 166.138 71.3333 167.071 73C168.038 71.4667 169.355 70.2167 171.021 69.25C172.688 68.2833 174.505 67.8 176.471 67.8ZM192.101 82C192.101 79.1333 192.635 76.6167 193.701 74.45C194.801 72.2833 196.285 70.6167 198.151 69.45C200.018 68.2833 202.101 67.7 204.401 67.7C206.368 67.7 208.085 68.1 209.551 68.9C211.051 69.7 212.201 70.75 213.001 72.05V68.1H221.551V96H213.001V92.05C212.168 93.35 211.001 94.4 209.501 95.2C208.035 96 206.318 96.4 204.351 96.4C202.085 96.4 200.018 95.8167 198.151 94.65C196.285 93.45 194.801 91.7667 193.701 89.6C192.635 87.4 192.101 84.8667 192.101 82ZM213.001 82.05C213.001 79.9167 212.401 78.2333 211.201 77C210.035 75.7667 208.601 75.15 206.901 75.15C205.201 75.15 203.751 75.7667 202.551 77C201.385 78.2 200.801 79.8667 200.801 82C200.801 84.1333 201.385 85.8333 202.551 87.1C203.751 88.3333 205.201 88.95 206.901 88.95C208.601 88.95 210.035 88.3333 211.201 87.1C212.401 85.8667 213.001 84.1833 213.001 82.05Z" fill="white"/>
</svg>
